# xmcd
#
# Track frame offsets:
#       150
#       19532
#       35362
#       49262
#       69747
#       95214
#       114614
#       134094
#       158235
#       182529
#       195113
#       216914
#       226772
#       251573
#       270050
#       288125
#       306192
#
# Disc length: 4353 seconds
#
# Revision: 0
# Processed by: cddbd v1.4PL0 Copyright (c) Steve Scherf et al.
# Submitted via: WhereIsIt 3.22
#
DISCID=e810ff11
DTITLE=Country blues - 23.09.2000 hm
DYEAR=1900
DGENRE=
TTITLE0=Gary Rex/Classy Women
TTITLE1=Gary Rex/Headshrinker
TTITLE2=Gary Rex/Max and the I R S
TTITLE3=Gene Kelton/White to play the bue
TTITLE4=Gene Kelton/Tears on my guitar
TTITLE5=Gene Kelton/Texas Honey
TTITLE6=James Quill/Sandy s prayer
TTITLE7=James Quill/Hospital
TTITLE8=James Quill/Loser Blues
TTITLE9=Cross Connected/Oh My God
TTITLE10=Mark Adam/Amazing Grace
TTITLE11=Mary loves to fuck
TTITLE12=Mean Gene Kelton&The Die Hard/My baby dont wear no...
TTITLE13=One April Day/America
TTITLE14=Colin Hay/Into The Cornfields
TTITLE15=Kim Novak/Space Needle
TTITLE16=Mick OD/Forever
EXTD=
EXTT0=
EXTT1=
EXTT2=
EXTT3=
EXTT4=
EXTT5=
EXTT6=
EXTT7=
EXTT8=
EXTT9=
EXTT10=
EXTT11=
EXTT12=
EXTT13=
EXTT14=
EXTT15=
EXTT16=
PLAYORDER=
